<svg viewBox="0 0 136 136" fill="none" xmlns="http://www.w3.org/2000/svg">
<path d="M135.437 67.7184C135.437 105.118 105.118 135.437 67.7184 135.437C30.3186 135.437 0 105.118 0 67.7184C0 30.3186 30.3186 0 67.7184 0C105.118 0 135.437 30.3186 135.437 67.7184Z" fill="#A2B87E"/>
<path d="M53.2861 90.538C52.4177 90.1425 52.0646 89.0954 52.5161 88.2548L60.034 74.2584L44.0399 76.7657C43.101 76.9129 42.2321 76.2389 42.1412 75.2929L41.293 66.4681C41.2011 65.5115 41.9427 64.6789 42.9035 64.6599L59.0131 64.342L48.6786 51.9801C48.0622 51.2428 48.2035 50.1368 48.9856 49.5782L56.1999 44.4254C56.9732 43.8731 58.052 44.0862 58.5573 44.8911L67.1643 58.6031L72.7886 43.7442C73.1263 42.8519 74.1481 42.4309 75.0165 42.8264L83.1222 46.5182C83.9921 46.9144 84.3446 47.9643 83.8901 48.8052L76.3364 62.7805L92.3305 60.2732C93.2694 60.1261 94.1383 60.8001 94.2292 61.746L95.0775 70.5728C95.1694 71.5287 94.429 72.361 93.4689 72.381L77.3993 72.7161L87.6946 85.0591C88.3097 85.7966 88.1678 86.9014 87.3864 87.4596L80.1705 92.6135C79.3972 93.1659 78.3183 92.9528 77.8131 92.1479L69.2061 78.4359L63.6212 93.3079C63.2851 94.2028 62.2616 94.626 61.3917 94.2298L53.2861 90.538Z" fill="#ECFFCE"/>
</svg>
