<svg viewBox="0 0 136 136" fill="none" xmlns="http://www.w3.org/2000/svg">
<path d="M135.437 67.7184C135.437 105.118 105.118 135.437 67.7184 135.437C30.3186 135.437 0 105.118 0 67.7184C0 30.3186 30.3186 0 67.7184 0C105.118 0 135.437 30.3186 135.437 67.7184Z" fill="#F588B9"/>
<path d="M47.0181 75.2538L55.266 66.1552C55.2914 66.1271 55.2993 66.0871 55.2863 66.0514L53.3881 60.8343C53.3616 60.7615 53.2676 60.7442 53.2173 60.8028L39.9279 76.3116C39.9039 76.3396 39.8969 76.3785 39.9095 76.4132L41.1858 79.921C41.1992 79.9581 41.2327 79.9839 41.2717 79.9873L60.8206 81.6825C60.8941 81.6889 60.9492 81.616 60.9238 81.5461L59.0227 76.3209C59.009 76.2832 58.9747 76.2572 58.9351 76.2544L47.0855 75.424C47.0013 75.4181 46.9612 75.3166 47.0181 75.2538Z" fill="#FFEDF5"/>
<path d="M47.0181 75.2538L55.266 66.1552C55.2914 66.1271 55.2993 66.0871 55.2863 66.0514L53.3881 60.8343C53.3616 60.7615 53.2676 60.7442 53.2173 60.8028L39.9279 76.3116C39.9039 76.3396 39.8969 76.3785 39.9095 76.4132L41.1858 79.921C41.1992 79.9581 41.2327 79.9839 41.2717 79.9873L60.8206 81.6825C60.8941 81.6889 60.9492 81.616 60.9238 81.5461L59.0227 76.3209C59.009 76.2832 58.9747 76.2572 58.9351 76.2544L47.0855 75.424C47.0013 75.4181 46.9612 75.3166 47.0181 75.2538Z" fill="#FFEDF5"/>
<path d="M47.0181 75.2538L55.266 66.1552C55.2914 66.1271 55.2993 66.0871 55.2863 66.0514L53.3881 60.8343C53.3616 60.7615 53.2676 60.7442 53.2173 60.8028L39.9279 76.3116C39.9039 76.3396 39.8969 76.3785 39.9095 76.4132L41.1858 79.921C41.1992 79.9581 41.2327 79.9839 41.2717 79.9873L60.8206 81.6825C60.8941 81.6889 60.9492 81.616 60.9238 81.5461L59.0227 76.3209C59.009 76.2832 58.9747 76.2572 58.9351 76.2544L47.0855 75.424C47.0013 75.4181 46.9612 75.3166 47.0181 75.2538Z" fill="#FFEDF5"/>
<path d="M87.9456 60.0657L75.8268 58.5252C75.7894 58.5204 75.7578 58.495 75.7448 58.4593L73.8466 53.2422C73.8202 53.1695 73.8807 53.0947 73.9566 53.1066L94.0271 56.2355C94.0633 56.2411 94.0937 56.2662 94.1063 56.301L95.3826 59.8087C95.3961 59.8458 95.3871 59.8874 95.3596 59.9154L81.5485 73.9905C81.4966 74.0434 81.4078 74.0239 81.3824 73.954L79.4812 68.7288C79.4675 68.6912 79.477 68.6489 79.5054 68.6209L88.0034 60.2395C88.0637 60.1799 88.0293 60.0764 87.9456 60.0657Z" fill="#FFEDF5"/>
<path d="M87.9456 60.0657L75.8268 58.5252C75.7894 58.5204 75.7578 58.495 75.7448 58.4593L73.8466 53.2422C73.8202 53.1695 73.8807 53.0947 73.9566 53.1066L94.0271 56.2355C94.0633 56.2411 94.0937 56.2662 94.1063 56.301L95.3826 59.8087C95.3961 59.8458 95.3871 59.8874 95.3596 59.9154L81.5485 73.9905C81.4966 74.0434 81.4078 74.0239 81.3824 73.954L79.4812 68.7288C79.4675 68.6912 79.477 68.6489 79.5054 68.6209L88.0034 60.2395C88.0637 60.1799 88.0293 60.0764 87.9456 60.0657Z" fill="#FFEDF5"/>
<path d="M87.9456 60.0657L75.8268 58.5252C75.7894 58.5204 75.7578 58.495 75.7448 58.4593L73.8466 53.2422C73.8202 53.1695 73.8807 53.0947 73.9566 53.1066L94.0271 56.2355C94.0633 56.2411 94.0937 56.2662 94.1063 56.301L95.3826 59.8087C95.3961 59.8458 95.3871 59.8874 95.3596 59.9154L81.5485 73.9905C81.4966 74.0434 81.4078 74.0239 81.3824 73.954L79.4812 68.7288C79.4675 68.6912 79.477 68.6489 79.5054 68.6209L88.0034 60.2395C88.0637 60.1799 88.0293 60.0764 87.9456 60.0657Z" fill="#FFEDF5"/>
<path d="M69.6308 52.1543L64.4484 54.0775C64.4087 54.0922 64.3823 54.1305 64.3824 54.1732L64.4506 84.3764C64.4507 84.4471 64.5204 84.4961 64.5861 84.4717L69.7685 82.5485C69.8082 82.5338 69.8346 82.4955 69.8345 82.4528L69.7663 52.2496C69.7662 52.1789 69.6965 52.1299 69.6308 52.1543Z" fill="#FFEDF5"/>
</svg>
