<svg viewBox="0 0 103 80" fill="none" xmlns="http://www.w3.org/2000/svg">
<path d="M68.0178 13.6961C81.8332 30.1017 79.8661 54.7583 63.6241 68.7682C47.3822 82.7781 23.0159 80.836 9.2006 64.4304C-4.61475 48.0248 -2.64762 23.3681 13.5943 9.35825C29.8362 -4.65164 54.2025 -2.70953 68.0178 13.6961Z" fill="#9FA8FE"/>
<path d="M29.363 46.8743L31.8378 40.9427C31.8711 40.863 31.857 40.7722 31.8013 40.7075L30.0572 38.6802C29.9437 38.5482 29.7269 38.5878 29.6637 38.752L25.6908 49.0729C25.6606 49.1513 25.6755 49.2391 25.7298 49.3021L26.9388 50.7075C26.9966 50.7747 27.0891 50.8021 27.1759 50.7777L37.5245 47.8678C37.6883 47.8218 37.7511 47.6234 37.642 47.4966L35.8852 45.4546C35.8265 45.3863 35.7323 45.3593 35.6445 45.3855L29.6403 47.1786C29.4538 47.2343 29.2885 47.0528 29.363 46.8743Z" fill="#9FA8FE"/>
<path d="M29.363 46.8743L31.8378 40.9427C31.8711 40.863 31.857 40.7722 31.8013 40.7075L30.0572 38.6802C29.9437 38.5482 29.7269 38.5878 29.6637 38.752L25.6908 49.0729C25.6606 49.1513 25.6755 49.2391 25.7298 49.3021L26.9388 50.7075C26.9966 50.7747 27.0891 50.8021 27.1759 50.7777L37.5245 47.8678C37.6883 47.8218 37.7511 47.6234 37.642 47.4966L35.8852 45.4546C35.8265 45.3863 35.7323 45.3593 35.6445 45.3855L29.6403 47.1786C29.4538 47.2343 29.2885 47.0528 29.363 46.8743Z" fill="#9FA8FE"/>
<path d="M29.363 46.8743L31.8378 40.9427C31.8711 40.863 31.857 40.7722 31.8013 40.7075L30.0572 38.6802C29.9437 38.5482 29.7269 38.5878 29.6637 38.752L25.6908 49.0729C25.6606 49.1513 25.6755 49.2391 25.7298 49.3021L26.9388 50.7075C26.9966 50.7747 27.0891 50.8021 27.1759 50.7777L37.5245 47.8678C37.6883 47.8218 37.7511 47.6234 37.642 47.4966L35.8852 45.4546C35.8265 45.3863 35.7323 45.3593 35.6445 45.3855L29.6403 47.1786C29.4538 47.2343 29.2885 47.0528 29.363 46.8743Z" fill="#ECFFCE"/>
<path d="M47.7491 31.2608L41.4664 32.7662C41.382 32.7864 41.294 32.7584 41.2383 32.6937L39.4941 30.6664C39.3806 30.5344 39.4537 30.3279 39.6268 30.2914L50.5068 27.9991C50.5894 27.9817 50.6744 28.01 50.7286 28.073L51.9377 29.4784C51.9955 29.5456 52.0083 29.6406 51.9705 29.722L47.4663 39.4253C47.395 39.5789 47.188 39.6096 47.0789 39.4828L45.3222 37.4408C45.2635 37.3725 45.2512 37.2758 45.291 37.1938L48.0085 31.5803C48.0929 31.406 47.9382 31.2155 47.7491 31.2608Z" fill="#9FA8FE"/>
<path d="M47.7491 31.2608L41.4664 32.7662C41.382 32.7864 41.294 32.7584 41.2383 32.6937L39.4941 30.6664C39.3806 30.5344 39.4537 30.3279 39.6268 30.2914L50.5068 27.9991C50.5894 27.9817 50.6744 28.01 50.7286 28.073L51.9377 29.4784C51.9955 29.5456 52.0083 29.6406 51.9705 29.722L47.4663 39.4253C47.395 39.5789 47.188 39.6096 47.0789 39.4828L45.3222 37.4408C45.2635 37.3725 45.2512 37.2758 45.291 37.1938L48.0085 31.5803C48.0929 31.406 47.9382 31.2155 47.7491 31.2608Z" fill="#9FA8FE"/>
<path d="M47.7491 31.2608L41.4664 32.7662C41.382 32.7864 41.294 32.7584 41.2383 32.6937L39.4941 30.6664C39.3806 30.5344 39.4537 30.3279 39.6268 30.2914L50.5068 27.9991C50.5894 27.9817 50.6744 28.01 50.7286 28.073L51.9377 29.4784C51.9955 29.5456 52.0083 29.6406 51.9705 29.722L47.4663 39.4253C47.395 39.5789 47.188 39.6096 47.0789 39.4828L45.3222 37.4408C45.2635 37.3725 45.2512 37.2758 45.291 37.1938L48.0085 31.5803C48.0929 31.406 47.9382 31.2155 47.7491 31.2608Z" fill="#ECFFCE"/>
<path d="M36.6619 30.8829L34.556 32.6713C34.4816 32.7345 34.4542 32.8365 34.4875 32.9265L40.1474 48.237C40.2024 48.3858 40.3909 48.4327 40.514 48.3281L42.6199 46.5398C42.6944 46.4765 42.7218 46.3746 42.6885 46.2845L37.0286 30.9741C36.9735 30.8253 36.785 30.7784 36.6619 30.8829Z" fill="#ECFFCE"/>
<path d="M80.3987 33.9594L59.6656 40.5334C59.5409 40.573 59.4588 40.7017 59.4632 40.8453C60.11 61.7346 64.2922 71.1106 83.895 79.9743C83.977 80.0114 84.0729 80.0082 84.1489 79.9656C101.255 70.3899 104.114 60.7587 102.675 39.6937C102.665 39.5447 102.564 39.4133 102.429 39.38L80.5478 33.955C80.4979 33.9427 80.4466 33.9442 80.3987 33.9594Z" fill="#F588B9"/>
<path d="M89.6346 42.9564L78.9089 44.2689L75.4844 58.5179L80.921 57.8527L78.7752 69.5744L89.2718 52.6818L82.4576 53.5156L89.6346 42.9564Z" fill="#ECFFCE"/>
</svg>
