<svg width="64" height="55" viewBox="0 0 64 55" fill="none" xmlns="http://www.w3.org/2000/svg">
<path d="M54.2449 31.5737L63.7074 34.808L55.8329 54.0608L53.5737 52.9902L52.4033 54.7595L49.5544 53.2988L48.7741 54.4782L46.4152 52.9177L54.2449 31.5737Z" fill="#77A1D1"/>
<path d="M54.2449 31.5737L63.7074 34.808L55.8329 54.0608L53.5737 52.9902L52.4033 54.7595L49.5544 53.2988L48.7741 54.4782L46.4152 52.9177L54.2449 31.5737Z" fill="#77A1D1"/>
<path d="M52.1095 30.8367L57.8466 32.7976L56.8956 35.58L51.1585 33.6191L52.1095 30.8367Z" fill="#77A1D1"/>
<path d="M52.1095 30.8367L57.8466 32.7976L56.8956 35.58L51.1585 33.6191L52.1095 30.8367Z" fill="#77A1D1"/>
<path d="M16.9275 5.85539L9.16103 0.293751L0.537952 15.0257L2.53519 16.375L1.85109 18.2701L4.45154 19.9146L3.99548 21.178L6.40834 22.359L16.9275 5.85539Z" fill="#77A1D1"/>
<path d="M16.9275 5.85539L9.16103 0.293751L0.537952 15.0257L2.53519 16.375L1.85109 18.2701L4.45154 19.9146L3.99548 21.178L6.40834 22.359L16.9275 5.85539Z" fill="#77A1D1"/>
<path d="M18.6959 7.0259L14.1576 3.87502L12.6167 7.24385L16.7449 9.97477L18.6959 7.0259Z" fill="#77A1D1"/>
<path d="M18.6959 7.0259L14.1576 3.87502L12.6167 7.24385L16.7449 9.97477L18.6959 7.0259Z" fill="#77A1D1"/>
</svg>
