<svg width="56" height="56" viewBox="0 0 56 56" fill="none" xmlns="http://www.w3.org/2000/svg">
<path d="M0.542592 29.6054C-0.248172 14.5303 11.4933 1.48321 26.7795 0.682817C42.0657 -0.117576 55.0986 11.4543 55.8893 26.5294L55.9633 27.9403C56.7339 42.6308 45.1143 55.1809 30.2181 55.9609C14.7319 56.7718 1.34371 44.8778 0.542592 29.6054Z" fill="#262625"/>
<path d="M21.6332 31.027C21.6241 31.0297 21.615 31.0282 21.607 31.025C21.5985 31.0206 21.5914 31.0115 21.5895 31.0008L19.8948 22.0517C19.8917 22.0372 19.8995 22.0209 19.9147 22.0149L24.4068 20.0299C24.4198 20.0259 24.4352 20.0297 24.4431 20.0414L30.0725 27.252C30.0792 27.2598 30.0811 27.2705 30.0787 27.281C30.0762 27.2916 30.0687 27.2995 30.06 27.3035L27.1275 28.5996C27.1132 28.6039 27.097 28.5976 27.0888 28.5847L26.1934 27.1452L24.099 28.0709L24.1022 28.0812L24.5834 29.6918C24.5886 29.7085 24.5808 29.7248 24.5647 29.7325L21.6336 31.0282L21.6332 31.027ZM22.5941 22.0439C23.0005 23.5044 23.3109 24.8703 23.5421 26.2194C23.9644 25.9181 24.2882 25.7588 24.7597 25.6168C24.873 25.5826 25.0014 25.5468 25.1601 25.5074C24.2924 24.642 23.4885 23.5314 22.6398 22.026L22.5958 22.0448L22.5941 22.0439Z" fill="#F3F3F1"/>
<path d="M24.4167 20.062C26.2925 22.4648 28.1683 24.8676 30.0462 27.2726C29.0704 27.7041 28.0934 28.136 27.1172 28.5662C26.813 28.0784 26.5101 27.5901 26.2058 27.1022L24.0526 28.0541C24.0582 28.0678 24.0652 28.0812 24.0708 28.0949C24.2304 28.6306 24.3896 29.165 24.5492 29.7007L21.6216 30.994C21.0567 28.0095 20.4913 25.0281 19.9268 22.0449L24.4167 20.062ZM23.523 26.2729C23.9766 25.9439 24.3077 25.7852 24.7688 25.6463C24.9029 25.6059 25.0491 25.5675 25.2112 25.5256C25.2085 25.5166 25.2035 25.5097 25.2007 25.5007C24.1993 24.5016 23.3867 23.2842 22.6535 21.9783L22.5546 22.0221C22.9424 23.4082 23.2697 24.8154 23.5137 26.2476C23.5161 26.2553 23.5215 26.2635 23.5239 26.2712M24.3969 19.9978C24.3969 19.9978 24.3917 19.9993 24.3891 20.0001L19.9009 21.9839C19.8721 21.9968 19.8558 22.027 19.8623 22.0573C20.4268 25.0405 20.9909 28.0223 21.5571 31.0064C21.5604 31.0264 21.5742 31.0433 21.5928 31.0531C21.6081 31.0612 21.627 31.0625 21.644 31.0574C21.6466 31.0566 21.6492 31.0558 21.6518 31.055L24.5794 29.7617C24.6108 29.7481 24.6272 29.7137 24.6173 29.6816C24.498 29.2811 24.3787 28.8806 24.259 28.4788L24.1425 28.0873L26.1807 27.1869L27.0612 28.6014C27.0777 28.6273 27.1097 28.6387 27.1384 28.63C27.141 28.6293 27.1436 28.6285 27.1462 28.6277L27.6796 28.3912L30.0747 27.3327C30.0934 27.3243 30.1081 27.3072 30.1134 27.2874C30.1186 27.2676 30.1136 27.2466 30.1015 27.2306C28.2237 24.8256 26.3479 22.4228 24.4721 20.02C24.4551 19.9971 24.4256 19.9891 24.3982 19.9974L24.3969 19.9978ZM23.5665 26.1601C23.3403 24.8502 23.0405 23.5232 22.6487 22.1103C23.4673 23.5546 24.247 24.6332 25.0917 25.4887C24.9585 25.5232 24.8483 25.5536 24.7494 25.5834C24.2909 25.7215 23.9702 25.8771 23.5665 26.1601Z" fill="#F3F3F1"/>
<path d="M14.258 32.4576C14.2398 32.4631 14.2211 32.4533 14.2156 32.4353L11.6036 23.9689C11.5981 23.951 11.608 23.9325 11.6262 23.927L14.528 23.0527C14.5449 23.0476 14.5632 23.0561 14.57 23.0737C14.9817 24.1776 15.363 25.3074 15.7035 26.4341C15.9744 27.3306 16.2258 28.247 16.4498 29.1576C17.0016 28.9254 17.5713 28.7186 18.1439 28.5447L18.196 28.529C18.7652 28.3575 19.3499 28.2136 19.933 28.1011C19.9503 28.0972 19.9664 28.1078 19.9716 28.1245L20.6988 30.4819C20.7044 30.4998 20.6944 30.5183 20.6762 30.5238L14.2567 32.458L14.258 32.4576Z" fill="#F3F3F1"/>
<path d="M14.5379 23.0848C14.9299 24.1342 15.3124 25.2539 15.671 26.4439C15.9589 27.3956 16.2089 28.3166 16.427 29.2037C16.938 28.9866 17.5148 28.7708 18.1538 28.5768C18.1708 28.5717 18.189 28.5662 18.2059 28.5611C18.8272 28.3739 19.4096 28.2363 19.9403 28.1339L20.6676 30.4913L14.2481 32.4255L11.6362 23.9591L14.5379 23.0848ZM14.5181 23.0206L11.6163 23.8949C11.5799 23.9059 11.5599 23.9428 11.571 23.9787L14.183 32.4451C14.1941 32.4811 14.2315 32.5007 14.2679 32.4897L20.6874 30.5555C20.7238 30.5445 20.7438 30.5076 20.7327 30.4717L20.0054 28.1143C19.9951 28.0809 19.9621 28.0614 19.927 28.0678C19.3413 28.1811 18.7566 28.325 18.1861 28.4969L18.134 28.5126C17.5731 28.683 17.0148 28.8849 16.4739 29.111C16.2508 28.2128 16.0034 27.3092 15.7361 26.4243C15.3952 25.2963 15.0135 24.1652 14.6018 23.0613C14.5889 23.0287 14.5532 23.01 14.5181 23.0206Z" fill="#F3F3F1"/>
<path d="M44.825 24.808C44.8077 24.8118 44.7899 24.8003 44.7861 24.7832C44.6562 24.247 44.5383 23.6988 44.4362 23.1556C44.3367 22.6299 44.2502 22.096 44.177 21.5679L41.7964 22.0088C41.8466 22.4301 41.9084 22.8563 41.9828 23.2774C42.0958 23.9253 42.2376 24.5786 42.4051 25.2186C42.4079 25.2276 42.4051 25.2368 42.4005 25.2452C42.3956 25.2523 42.3899 25.2568 42.3821 25.2592L39.3926 25.8119C39.3835 25.8147 39.3741 25.8119 39.3669 25.8071C39.3597 25.8022 39.3543 25.794 39.3532 25.7859L37.7113 17.0819C37.7075 17.0649 37.7182 17.049 37.7352 17.0439L40.7208 16.4923C40.7381 16.4885 40.7559 16.5 40.7597 16.517C40.9062 17.0932 41.035 17.6816 41.1407 18.2687C41.2252 18.7316 41.2974 19.201 41.3559 19.6675L43.7339 19.2274C43.6161 18.7395 43.5098 18.2425 43.4149 17.7504C43.3096 17.197 43.2175 16.6353 43.1412 16.0788C43.139 16.0626 43.1498 16.0467 43.1654 16.042L46.1536 15.4896C46.1727 15.4867 46.1904 15.4982 46.1934 15.5169L47.8362 24.2193C47.839 24.2282 47.8361 24.2375 47.8312 24.2446C47.8276 24.2513 47.8202 24.255 47.8123 24.2573L44.8267 24.8089L44.825 24.808Z" fill="#F3F3F1"/>
<path d="M37.7438 17.0749L40.7251 16.5232C40.8637 17.0695 40.994 17.6533 41.1053 18.2723C41.1957 18.7685 41.2681 19.2476 41.3252 19.7048C42.1413 19.5543 42.9571 19.4025 43.7746 19.2516C43.6592 18.7714 43.5478 18.2675 43.4483 17.7417C43.3381 17.1631 43.2471 16.6053 43.1749 16.0714L46.1593 15.5202L47.8021 24.2225L44.8207 24.7742C44.6959 24.2589 44.5783 23.7162 44.4713 23.1478C44.3653 22.5875 44.2795 22.0464 44.2078 21.5278C43.3916 21.6783 42.5758 21.83 41.7596 21.9805C41.8087 22.398 41.8715 22.8323 41.949 23.2819C42.0704 23.975 42.2152 24.6246 42.3722 25.2257L39.3866 25.7772C38.8389 22.876 38.2911 19.9748 37.7447 17.0733M37.7249 17.0091C37.6923 17.0189 37.6712 17.0519 37.6772 17.0852L39.3187 25.7879C39.3225 25.8049 39.3316 25.8205 39.3477 25.8311C39.3621 25.8408 39.3805 25.845 39.3991 25.8408L42.3847 25.2893C42.3847 25.2893 42.3899 25.2877 42.3925 25.2869C42.4081 25.2822 42.4209 25.2727 42.4307 25.2585C42.4415 25.2427 42.4442 25.2236 42.4386 25.2056C42.2719 24.5683 42.1305 23.9162 42.017 23.267C41.9466 22.8588 41.885 22.4423 41.8349 22.0308L44.1498 21.6028C44.2215 22.1214 44.307 22.643 44.4043 23.1567C44.5064 23.6999 44.6243 24.2482 44.7545 24.7857C44.7626 24.8211 44.7978 24.8428 44.8328 24.8365L47.8142 24.2848C47.8142 24.2848 47.8194 24.2832 47.822 24.2824C47.8545 24.2726 47.8757 24.2396 47.8697 24.2063L46.2269 15.504C46.223 15.4869 46.214 15.4714 46.1979 15.4608C46.1835 15.4511 46.1651 15.4469 46.1465 15.4511L43.1621 16.0022C43.1621 16.0022 43.1569 16.0038 43.1543 16.0046C43.1231 16.014 43.1029 16.0454 43.1072 16.0778C43.1839 16.6356 43.2751 17.1989 43.3813 17.7507C43.473 18.2325 43.5775 18.7188 43.6917 19.1952L43.6839 19.1975L41.3834 19.6213C41.3254 19.1658 41.2551 18.7071 41.1729 18.2561C41.0659 17.6695 40.938 17.0794 40.7911 16.5019C40.7821 16.4682 40.7483 16.4461 40.7132 16.4525L37.7319 17.0041C37.7319 17.0041 37.7267 17.0057 37.7241 17.0065L37.7249 17.0091Z" fill="#F3F3F1"/>
<path d="M34.4049 28.0725C33.3096 28.4025 32.1283 28.4217 31.5225 28.4049C31.5096 28.4046 31.4969 28.3958 31.492 28.3846L30.198 25.2466C30.1944 25.2351 30.1947 25.2224 30.2032 25.2128C30.2072 25.2074 30.2133 25.2041 30.2198 25.2022L30.4305 25.1191C30.4357 25.1175 30.4426 25.1168 30.4473 25.1182L32.0975 25.484C32.5778 25.5091 32.9499 25.4419 33.2604 25.3778C33.4371 25.3414 33.6061 25.2989 33.7637 25.2514C33.9838 25.1851 34.1927 25.1053 34.3841 25.0153C34.5049 24.9593 34.6315 24.8805 34.7598 24.7843C34.8073 24.7489 34.8512 24.6838 34.8804 24.6076C34.8942 24.574 34.8937 24.5447 34.8806 24.5206C34.8666 24.4939 34.8345 24.4727 34.7887 24.4626C34.6501 24.4286 34.5058 24.4454 34.3709 24.465C34.179 24.4934 33.9883 24.5214 33.7968 24.551C33.5153 24.5937 33.2247 24.6392 32.9373 24.6767C32.3107 24.7588 31.8032 24.77 31.3371 24.7126C30.7761 24.643 30.3515 24.4847 30.0009 24.2157C29.6988 23.9839 29.476 23.6862 29.3209 23.3035C29.0903 22.7359 29.0635 22.1602 29.2424 21.5955C29.3393 21.287 29.497 20.9953 29.7207 20.7006C30.038 20.285 30.4446 19.9282 30.9652 19.6085C31.3672 19.3611 31.8139 19.1619 32.3308 18.9964C32.3659 18.9858 32.4089 18.9728 32.4584 18.9579C33.0406 18.7825 33.6104 18.6964 34.1538 18.6997C34.6803 18.7038 35.1433 18.7973 35.2315 18.8156C35.3321 18.8372 35.4164 18.8567 35.4754 18.8726C35.4861 18.875 35.4941 18.8824 35.4986 18.8923C35.8893 19.785 36.2653 20.6947 36.6148 21.5969L36.6269 21.627C36.6321 21.6437 36.6251 21.6626 36.6073 21.6694L36.4149 21.747C36.4084 21.749 36.3998 21.7488 36.3934 21.7465C35.9542 21.5827 35.4972 21.4762 35.0324 21.4324C34.7142 21.402 34.2082 21.3861 33.61 21.4863C33.4244 21.517 33.2411 21.5596 33.0653 21.6126C32.8257 21.6848 32.5928 21.7788 32.3727 21.8914C32.2767 21.94 32.1861 22.0108 32.1056 22.0729C32.077 22.0956 32.0471 22.1327 32.0257 22.1784C31.997 22.2376 31.9944 22.2987 32.0203 22.3456C32.045 22.3887 32.0907 22.417 32.1496 22.4231C32.2942 22.4399 32.4191 22.4387 32.5286 22.4198C32.8223 22.3706 33.1185 22.3108 33.4055 22.2538L33.573 22.2202C34.2276 22.0903 34.8196 21.9835 35.4269 21.9914C35.8673 21.9976 36.2393 22.0637 36.5651 22.1971C37.0128 22.3794 37.3548 22.6805 37.5823 23.0904C37.8366 23.5499 37.9753 24.0413 37.9944 24.5506C38.015 25.0833 37.8714 25.5868 37.5705 26.0466C37.3119 26.4402 36.9625 26.7841 36.5015 27.0984C36.1488 27.3394 35.8114 27.5238 35.4708 27.6657C35.4669 27.6669 34.9686 27.8971 34.4687 28.0533L34.4049 28.0725Z" fill="#F3F3F1"/>
<path d="M32.47 18.9909C32.7995 18.8916 33.4283 18.7288 34.1546 18.7345C34.6871 18.7397 35.1471 18.8326 35.225 18.8498C35.3256 18.8715 35.4086 18.8913 35.4672 18.906C35.8567 19.7948 36.2287 20.6959 36.5831 21.6093C36.5851 21.6157 36.5919 21.6333 36.5952 21.6393L36.4054 21.7162C36.0515 21.5842 35.5882 21.453 35.0351 21.3994C34.8431 21.3814 34.2943 21.3377 33.6027 21.4535C33.4158 21.4845 33.2325 21.5271 33.0541 21.5809C32.8145 21.6531 32.5812 21.7458 32.355 21.8617C32.258 21.9119 32.1692 21.9794 32.083 22.046C32.0452 22.0757 32.0148 22.12 31.9938 22.1628C31.9255 22.3012 31.9907 22.4387 32.1453 22.4553C32.2736 22.47 32.407 22.4733 32.5342 22.4518C32.8837 22.3942 33.2314 22.3217 33.5786 22.2522C34.189 22.1314 34.7993 22.0149 35.4256 22.024C35.813 22.0294 36.1919 22.0808 36.5501 22.2269C36.9863 22.4042 37.3238 22.6954 37.5501 23.1058C37.7985 23.5558 37.9388 24.0383 37.9578 24.5518C37.9774 25.0862 37.8333 25.5787 37.5392 26.0279C37.2621 26.4496 36.8961 26.7858 36.4798 27.0698C36.1562 27.2894 35.8176 27.4841 35.4553 27.6339C35.4553 27.6339 34.9592 27.862 34.4571 28.0203C34.4363 28.0266 34.4155 28.0328 34.3959 28.0387C33.2081 28.3966 31.9339 28.382 31.5243 28.3693C31.5142 28.3457 31.342 27.9261 31.1584 27.4832C30.9441 26.964 30.4445 25.7505 30.2302 25.2313C30.4178 25.1565 30.4396 25.1486 30.4396 25.1486L32.0898 25.5144C32.5817 25.5402 32.9633 25.4715 33.2669 25.4081C33.438 25.372 33.6075 25.3308 33.7729 25.2809C33.9864 25.2166 34.1944 25.1385 34.3972 25.0437C34.5315 24.9808 34.6599 24.8986 34.7789 24.8094C34.8391 24.7646 34.8838 24.688 34.9107 24.6181C34.9477 24.5214 34.8983 24.4535 34.7952 24.4284C34.6523 24.3943 34.5063 24.4102 34.3645 24.4305C33.886 24.4989 33.4101 24.5805 32.9313 24.6434C32.4033 24.7127 31.8723 24.745 31.341 24.6791C30.8612 24.6188 30.4091 24.487 30.021 24.1886C29.713 23.9516 29.4968 23.6476 29.3514 23.2915C29.1264 22.7376 29.0928 22.1766 29.274 21.6056C29.3765 21.2828 29.5415 20.9918 29.7472 20.7221C30.086 20.279 30.5079 19.9301 30.9816 19.6387C31.4077 19.377 31.8642 19.1819 32.3398 19.0302C32.3749 19.0196 32.4166 19.007 32.4661 18.9921M32.4463 18.9279C32.3968 18.9428 32.3551 18.9554 32.3187 18.9664C31.7988 19.1314 31.3498 19.3326 30.9453 19.5808C30.4225 19.9025 30.0124 20.2619 29.6919 20.6812C29.4648 20.9784 29.307 21.2743 29.2082 21.5862C29.0261 22.1588 29.0535 22.7414 29.2878 23.3163C29.4429 23.699 29.6753 24.0093 29.9791 24.2419C30.3352 24.5149 30.7645 24.6746 31.3315 24.7451C31.7993 24.8035 32.3111 24.7924 32.9403 24.7094C33.2277 24.672 33.5196 24.6261 33.8011 24.5834C33.9926 24.5538 34.1829 24.5245 34.3752 24.4974C34.5075 24.4786 34.6479 24.463 34.7801 24.4947C34.8156 24.5037 34.8398 24.5174 34.8496 24.5355C34.857 24.5501 34.856 24.5701 34.8467 24.5953C34.8189 24.6668 34.779 24.7266 34.7373 24.7574C34.6116 24.8528 34.4868 24.9283 34.3673 24.9839C34.1772 25.0735 33.9692 25.1516 33.7517 25.2171C33.5955 25.2642 33.4264 25.3067 33.251 25.3427C32.9431 25.406 32.5749 25.4721 32.0963 25.4479C31.6177 25.4237 30.4508 25.0835 30.4508 25.0835C30.4388 25.0815 30.4272 25.0807 30.4155 25.0843C30.4129 25.0851 30.4116 25.0855 30.409 25.0862L30.2035 25.1678C30.1918 25.1713 30.18 25.1791 30.1719 25.1899C30.1564 25.2087 30.1518 25.2353 30.1615 25.2576L31.0884 27.5099L31.2905 27.9991C31.3819 28.2214 31.4482 28.381 31.4543 28.396C31.4648 28.4209 31.4885 28.4376 31.5156 28.4379C32.1244 28.4551 33.31 28.4361 34.4092 28.1049C34.43 28.0986 34.4509 28.0923 34.4717 28.0861C34.9729 27.9294 35.4738 27.6985 35.4791 27.6969C35.8196 27.555 36.1579 27.3689 36.5132 27.1271C36.9777 26.8103 37.3307 26.464 37.5911 26.067C37.8973 25.6015 38.0419 25.092 38.0206 24.5525C38.0013 24.0377 37.8609 23.5412 37.6051 23.0766C37.3739 22.6593 37.0264 22.3542 36.5719 22.1684C36.2431 22.0345 35.866 21.9657 35.4217 21.9606C34.8101 21.9527 34.2168 22.0599 33.5596 22.1905L33.3895 22.225C33.1041 22.2829 32.8076 22.3413 32.5165 22.3898C32.4109 22.4075 32.2873 22.4083 32.1474 22.3929C32.0988 22.3879 32.0624 22.3666 32.0435 22.333C32.0234 22.2956 32.0251 22.2459 32.0497 22.1964C32.0698 22.1553 32.0939 22.1228 32.1203 22.1022C32.203 22.038 32.2892 21.9713 32.3813 21.9239C32.6001 21.8117 32.8308 21.7197 33.0691 21.6479C33.2436 21.5953 33.4243 21.5535 33.6095 21.5216C34.0805 21.4428 34.5689 21.4247 35.0233 21.4674C35.4855 21.512 35.9404 21.6163 36.3752 21.78C36.3897 21.7855 36.4052 21.785 36.4196 21.7807C36.4222 21.7799 36.4235 21.7795 36.4261 21.7787L36.6159 21.7019C36.6503 21.6887 36.6668 21.65 36.6535 21.6162C36.6515 21.6097 36.6439 21.5896 36.6406 21.5836C36.2911 20.6813 35.915 19.7716 35.5243 18.8789C35.5158 18.8605 35.4998 18.8456 35.4797 18.8404C35.3946 18.8184 35.315 18.8003 35.2341 18.7825C35.1108 18.7566 34.6657 18.6703 34.1504 18.6656C33.604 18.6619 33.0303 18.7491 32.4455 18.9253L32.4463 18.9279Z" fill="#F3F3F1"/>
<path d="M10.3452 35.4679C9.98964 35.5751 9.65193 35.6431 9.31304 35.6751C8.73407 35.7317 8.17244 35.6876 7.64656 35.5471C6.75429 35.308 5.99367 34.8173 5.38506 34.0857C5.00504 33.629 4.71042 33.1032 4.51026 32.5236C4.31049 31.9453 4.22646 31.3545 4.26241 30.7697C4.29944 30.1608 4.4641 29.5779 4.75031 29.0384C5.05374 28.467 5.47674 27.9649 6.00958 27.5419C6.47248 27.1737 6.9938 26.8749 7.56 26.6524C7.70712 26.594 7.85621 26.5421 8.00599 26.4969C8.29251 26.4106 8.58616 26.3474 8.87913 26.3096L8.9284 26.3032C9.15529 26.2727 9.38948 26.2429 9.66964 26.2651C9.66964 26.2651 9.69286 26.2665 10.067 26.3026C10.0773 26.3037 10.0861 26.3094 10.0928 26.3172C10.3782 26.7532 10.6403 27.2104 10.8719 27.6752C11.1526 28.239 11.3969 28.8277 11.5966 29.4243C11.6017 29.441 11.5944 29.4587 11.5778 29.465C11.5778 29.465 11.4244 29.5351 11.4218 29.5359C11.414 29.5383 11.404 29.5385 11.3976 29.5362C11.0707 29.413 10.7327 29.3324 10.393 29.2972C10.1972 29.2762 9.87084 29.2426 9.46065 29.3157C9.3499 29.3351 9.23981 29.3612 9.13171 29.3938C9.08222 29.4087 9.03404 29.4232 8.98443 29.4424C8.67571 29.5536 8.41007 29.68 8.17228 29.8274C7.80221 30.0582 7.55542 30.301 7.39812 30.5939C7.22231 30.9191 7.18826 31.2564 7.29493 31.5975C7.36556 31.8218 7.46863 32.0083 7.60981 32.1706C7.81242 32.4029 8.07116 32.5494 8.37832 32.6084C8.70219 32.6708 9.03395 32.648 9.3921 32.5401C9.4468 32.5236 9.4998 32.5063 9.55331 32.4859C9.92166 32.3511 10.2558 32.1746 10.5462 31.9623C10.6625 31.8781 10.7727 31.7831 10.875 31.6808C11.1153 31.44 11.2484 31.2118 11.3767 30.9907C11.5162 30.7508 11.6384 30.4965 11.738 30.2335C11.7413 30.2255 11.7479 30.2193 11.7553 30.2157L11.9054 30.1438C11.9197 30.1395 11.9359 30.1458 11.9442 30.1588C12.2116 30.5918 12.46 31.0418 12.6846 31.4976C12.9598 32.0574 13.2051 32.6402 13.4123 33.2289C13.4147 33.2366 13.4154 33.2434 13.4121 33.2514C13.4075 33.264 13.4014 33.2813 13.3936 33.3019C13.2331 33.7137 12.9258 33.9635 12.5692 34.2519C12.5191 34.2923 12.468 34.3343 12.4169 34.3764C11.9448 34.7656 11.4051 35.0784 10.8146 35.3054C10.6567 35.3657 10.4998 35.4199 10.3474 35.4659L10.3452 35.4679Z" fill="#F3F3F1"/>
<path d="M8.01368 26.5311C8.2976 26.4456 8.58734 26.3835 8.88031 26.3458C9.11972 26.3143 9.36745 26.2776 9.66391 26.3019C9.66391 26.3019 9.68713 26.3033 10.0608 26.3381C10.3189 26.7318 10.5837 27.1839 10.8374 27.6926C11.1504 28.3196 11.3835 28.9089 11.5605 29.4366C11.5095 29.4604 11.4581 29.4829 11.4071 29.5067C11.0025 29.3535 10.6489 29.2917 10.3934 29.2662C10.1744 29.2438 9.85572 29.2121 9.45114 29.2849C9.33908 29.3046 9.229 29.3308 9.1183 29.3641C9.06881 29.3791 9.01802 29.3944 8.96972 29.4131C8.68274 29.5164 8.40809 29.6413 8.15015 29.8018C7.82912 30.0024 7.54529 30.2451 7.36403 30.5803C7.18731 30.9072 7.14574 31.2523 7.25886 31.6098C7.32711 31.8264 7.43075 32.0239 7.58031 32.1949C7.7896 32.435 8.05343 32.5842 8.3679 32.6438C8.72047 32.7116 9.06378 32.6755 9.3985 32.5747C9.4532 32.5582 9.5075 32.5404 9.56231 32.5197C9.92064 32.3893 10.256 32.2167 10.5639 31.992C10.6834 31.9041 10.7936 31.8091 10.8958 31.7068C11.1348 31.4663 11.2647 31.2462 11.4024 31.0096C11.5125 30.8221 11.6443 30.5663 11.7665 30.2474C11.8149 30.2244 11.8634 30.2014 11.9118 30.1784C12.1586 30.5769 12.4084 31.0223 12.6514 31.5146C12.9531 32.1281 13.1898 32.7107 13.3779 33.242C13.3742 33.253 13.3681 33.2703 13.359 33.2913C13.1795 33.7523 12.8106 34.0052 12.3922 34.3516C11.9135 34.747 11.3812 35.0519 10.7995 35.2749C10.6455 35.3339 10.4912 35.3875 10.3349 35.4346C10.0002 35.5354 9.65935 35.6072 9.30835 35.6414C8.7501 35.6959 8.19646 35.6593 7.65348 35.5142C6.74581 35.2712 6.00291 34.778 5.40976 34.0642C5.02476 33.6006 4.73772 33.0809 4.54112 32.5129C4.34571 31.9487 4.25794 31.3689 4.29463 30.7726C4.33115 30.1666 4.49297 29.593 4.77827 29.0552C5.08674 28.4725 5.50901 27.9818 6.0282 27.57C6.49722 27.1985 7.01151 26.9046 7.569 26.6861C7.71481 26.6282 7.86299 26.5779 8.01277 26.5328M7.99296 26.4686C7.84319 26.5137 7.69279 26.5661 7.54438 26.6248C6.97557 26.8481 6.45204 27.149 5.98563 27.5197C5.44928 27.9451 5.02317 28.451 4.71792 29.0257C4.42899 29.5702 4.26383 30.1561 4.22708 30.7706C4.19062 31.3583 4.27544 31.9516 4.4768 32.535C4.67815 33.1185 4.97486 33.6466 5.35737 34.1067C5.97057 34.8439 6.73668 35.3385 7.63665 35.5796C8.16723 35.7214 8.73315 35.7656 9.31643 35.7091C9.65792 35.6764 9.99823 35.6076 10.3564 35.4996C10.5088 35.4537 10.667 35.399 10.8262 35.3384C11.4206 35.1102 11.9629 34.7967 12.4381 34.4037C12.4905 34.3612 12.5403 34.3196 12.5905 34.2792C12.9501 33.987 13.2613 33.7361 13.4246 33.315C13.4325 33.2944 13.4395 33.2754 13.4432 33.2645C13.4488 33.2502 13.4483 33.2349 13.444 33.2207C13.2363 32.6308 12.991 32.0479 12.7151 31.4856C12.4901 31.0285 12.2412 30.5773 11.9725 30.1446C11.956 30.1187 11.9236 30.106 11.895 30.1147C11.8911 30.1158 11.8885 30.1166 11.8845 30.1178L11.7393 30.1868C11.7232 30.1945 11.7116 30.2078 11.7052 30.2238C11.6064 30.4851 11.4851 30.7377 11.3465 30.976C11.2137 31.2054 11.0869 31.4218 10.8497 31.6589C10.7497 31.7592 10.6408 31.8538 10.5257 31.9375C10.238 32.1491 9.90604 32.3235 9.5412 32.4559C9.4873 32.475 9.43339 32.494 9.38129 32.5097C9.02835 32.616 8.7022 32.6385 8.38263 32.5763C8.08317 32.5191 7.83083 32.3749 7.63321 32.1495C7.49491 31.9919 7.39393 31.8076 7.32489 31.5885C7.21969 31.2567 7.2535 30.928 7.42439 30.6099C7.57936 30.3232 7.82135 30.0833 8.187 29.8567C8.42348 29.7096 8.68691 29.5853 8.99303 29.4749C9.04173 29.4574 9.08952 29.4416 9.13771 29.4271C9.2445 29.3949 9.35458 29.3687 9.46234 29.3489C9.86561 29.2765 10.1907 29.3105 10.3848 29.3306C10.7231 29.3661 11.0578 29.4449 11.3804 29.568C11.3949 29.5735 11.4108 29.5743 11.4252 29.57C11.4278 29.5692 11.4317 29.568 11.4343 29.5672L11.5877 29.4971C11.6191 29.4835 11.6351 29.4478 11.6235 29.4148C11.4234 28.8169 11.1788 28.2269 10.8977 27.6618C10.6656 27.1957 10.4019 26.7377 10.1161 26.3004C10.1049 26.2827 10.0859 26.2716 10.0653 26.2694C9.69456 26.2351 9.66795 26.2319 9.66795 26.2319C9.38479 26.2092 9.14799 26.2399 8.9194 26.2694L8.86883 26.2763C8.57456 26.3144 8.2796 26.378 7.99048 26.4651L7.99296 26.4686Z" fill="#F3F3F1"/>
<path d="M24.7842 36.1401C24.7381 36.1546 24.6892 36.1289 24.6752 36.0834L24.5719 35.7484C24.8148 35.6752 24.9686 35.5767 25.0332 35.4528C25.0979 35.3289 25.0973 35.1604 25.0315 34.9471L24.8899 34.4882C24.8109 34.2321 24.7835 34.0164 24.8077 33.8411C24.8329 33.664 24.8979 33.5166 25.0027 33.3987C25.109 33.2805 25.2473 33.1813 25.4175 33.1013C25.5651 33.0318 25.7284 32.9685 25.9075 32.9113C25.9534 32.8966 26.0023 32.9223 26.0164 32.9678L26.1692 33.4633C26.1833 33.5088 26.1571 33.5567 26.1116 33.5729C25.9883 33.6169 25.8962 33.6674 25.8354 33.7244C25.7625 33.7917 25.7243 33.8744 25.7208 33.9723C25.7168 34.0688 25.7355 34.1842 25.7769 34.3185L25.964 34.9249C25.9965 35.0302 26.0078 35.1365 25.9979 35.2438C25.9876 35.3498 25.9405 35.4556 25.8564 35.5611C25.7718 35.6653 25.6372 35.7687 25.4524 35.8712C25.2838 35.9633 25.0611 36.053 24.7842 36.1401ZM27.5871 38.0591C27.6012 38.1047 27.5751 38.153 27.5287 38.1661C27.3477 38.2173 27.1764 38.2548 27.0148 38.2786C26.8283 38.306 26.6576 38.3 26.5026 38.2604C26.3491 38.2204 26.2119 38.1339 26.091 38.0008C25.972 37.8687 25.8729 37.6746 25.7939 37.4185L25.6517 36.9574C25.5859 36.7442 25.4912 36.604 25.3677 36.5369C25.2441 36.4697 25.0608 36.4727 24.8179 36.5459L24.7146 36.211C24.7005 36.1654 24.7266 36.1171 24.773 36.1038C25.052 36.0235 25.2877 35.9758 25.48 35.9605C25.6908 35.9424 25.8609 35.954 25.9903 35.9952C26.1192 36.035 26.2181 36.0968 26.2869 36.1804C26.3552 36.2627 26.4059 36.3572 26.4388 36.4638L26.6259 37.0702C26.6669 37.2031 26.7163 37.3085 26.7741 37.3865C26.8323 37.4658 26.9107 37.5133 27.0091 37.529C27.0918 37.5427 27.1967 37.5339 27.3239 37.5023C27.3708 37.4907 27.4196 37.5161 27.4336 37.5616L27.5871 38.0591ZM24.8179 36.5459L24.5719 35.7484L25.2444 35.5458C25.2906 35.5318 25.3395 35.5575 25.3536 35.603L25.5487 36.2355C25.5627 36.2811 25.5367 36.3293 25.4905 36.3432L24.8179 36.5459Z" fill="#F3F3F1"/>
<path d="M46.5895 30.0242C46.637 30.0151 46.6674 29.9693 46.6577 29.9227L46.5861 29.5797C46.3374 29.6306 46.1546 29.6169 46.0379 29.5388C45.9211 29.4607 45.84 29.3124 45.7944 29.0941L45.6963 28.6242C45.6415 28.3619 45.5611 28.1596 45.4549 28.0173C45.347 27.8738 45.2185 27.7751 45.0693 27.7213C44.9188 27.6679 44.7494 27.6463 44.5611 27.6567C44.398 27.6657 44.2239 27.6875 44.039 27.722C43.9915 27.7309 43.9611 27.7766 43.9708 27.8233L44.0767 28.3305C44.0864 28.3772 44.1327 28.4068 44.1804 28.3995C44.3099 28.3797 44.4152 28.3804 44.4963 28.4016C44.5929 28.4262 44.6664 28.4806 44.717 28.5649C44.7673 28.6477 44.8068 28.7579 44.8355 28.8954L44.9651 29.5163C44.9876 29.6241 45.0292 29.7227 45.0898 29.8123C45.1502 29.9005 45.2429 29.971 45.3678 30.0238C45.4925 30.0752 45.6608 30.1021 45.8727 30.1047C46.0653 30.1057 46.3042 30.0788 46.5895 30.0242ZM45.059 33.0363C45.0688 33.0829 45.1151 33.113 45.1622 33.1025C45.3458 33.0618 45.5143 33.0135 45.6678 32.9578C45.8447 32.8936 45.9917 32.8074 46.1085 32.6993C46.2239 32.5914 46.3024 32.4505 46.344 32.2764C46.3845 32.1041 46.3774 31.8868 46.3226 31.6245L46.2241 31.1525C46.1785 30.9342 46.1937 30.7663 46.2696 30.6488C46.3455 30.5313 46.5078 30.4471 46.7566 30.3963L46.685 30.0533C46.6752 30.0067 46.6289 29.9767 46.5818 29.9869C46.2979 30.0487 46.0679 30.1184 45.8918 30.1961C45.6979 30.28 45.5542 30.3708 45.4606 30.4682C45.3667 30.5643 45.3099 30.6653 45.29 30.7713C45.2699 30.876 45.2712 30.9829 45.294 31.092L45.4236 31.7129C45.4521 31.849 45.4598 31.9649 45.4468 32.0607C45.4341 32.1579 45.3883 32.2367 45.3095 32.2972C45.2436 32.3484 45.1472 32.3903 45.0203 32.4229C44.9735 32.4349 44.943 32.4802 44.9527 32.5269L45.059 33.0363ZM46.7566 30.3963L46.5861 29.5797L45.8975 29.7204C45.8502 29.7301 45.8198 29.7758 45.8295 29.8224L45.9647 30.47C45.9744 30.5167 46.0207 30.5467 46.068 30.537L46.7566 30.3963Z" fill="#F3F3F1"/>
<path d="M21.6205 39.5638C21.0805 39.7161 20.542 39.8693 20.0027 40.024C19.9703 40.0338 19.9317 40.0364 19.9146 39.9768C19.4421 38.3558 18.9692 36.7336 18.4951 35.1117C18.4896 35.094 18.4858 35.0731 18.4971 35.0542C18.5046 35.0403 18.5184 35.0296 18.5364 35.0242L18.5484 35.0206C18.588 35.0126 19.8354 34.6587 22.2563 33.9707C22.2707 33.9664 22.2872 33.973 22.2932 33.9881C22.3946 34.2061 22.4791 34.4331 22.5464 34.664C22.6133 34.8937 22.6641 35.1309 22.6955 35.3687C22.6975 35.3836 22.6887 35.3979 22.6731 35.4026L20.6549 35.9784C20.7047 36.076 20.7457 36.1789 20.7778 36.2831C20.8125 36.3957 20.8349 36.5106 20.846 36.6277L22.43 36.1802C22.4444 36.1759 22.4613 36.1837 22.4669 36.1976C22.6858 36.6858 22.7869 36.9751 22.8474 37.5032C22.8493 37.5182 22.8394 37.5328 22.825 37.5372L21.2326 37.9872C21.5085 38.9411 21.6545 39.4396 21.666 39.4685C21.6791 39.4982 21.6738 39.5192 21.6667 39.5304C21.6558 39.5505 21.6358 39.5579 21.619 39.5629L21.6166 39.5637L21.6205 39.5638Z" fill="#F3F3F1"/>
<path d="M18.5447 35.0554L18.5531 35.0528C18.5866 35.0466 20.1083 34.6153 22.2646 34.0019C22.3517 34.1905 22.4406 34.4149 22.5163 34.6731C22.592 34.9312 22.6373 35.1674 22.6652 35.3726L20.6105 35.9581C20.6574 36.0462 20.7089 36.1576 20.749 36.2918C20.7932 36.4352 20.8108 36.5645 20.8191 36.6682C21.4469 36.4894 21.8129 36.3894 22.4407 36.2106C22.6569 36.6944 22.757 36.9763 22.8182 37.5068C22.1905 37.6856 21.8244 37.7855 21.1967 37.9643C21.4471 38.8314 21.6261 39.4456 21.6403 39.4788C21.6414 39.4824 21.6496 39.5006 21.6421 39.5145C21.6379 39.5223 21.629 39.5275 21.6134 39.5322L21.611 39.533C21.071 39.6853 20.5329 39.8397 19.9932 39.9932C19.9644 40.0019 19.9529 39.9989 19.9431 39.9669C19.4705 38.3459 18.9977 36.7237 18.5236 35.1019C18.5188 35.0865 18.5179 35.0751 18.5221 35.0673C18.5271 35.0581 18.5364 35.054 18.5436 35.0518M18.5253 34.9926C18.4989 35.0005 18.4786 35.0157 18.4669 35.0374C18.4493 35.0699 18.4584 35.1034 18.4631 35.1188C18.9372 36.7406 19.4097 38.3616 19.8826 39.9838C19.8961 40.0277 19.9278 40.0751 20.0103 40.0528C20.5496 39.8981 21.088 39.7449 21.6281 39.5926C21.6521 39.5853 21.6814 39.5739 21.6973 39.5445C21.7057 39.529 21.7157 39.4975 21.6973 39.4552C21.6836 39.4192 21.541 38.9313 21.2742 38.007L22.8089 37.5744L22.8365 37.566C22.8654 37.5573 22.8844 37.5296 22.8804 37.4997C22.8188 36.968 22.717 36.6763 22.4974 36.1858C22.4846 36.1573 22.4525 36.1424 22.4224 36.1514L20.8733 36.5884C20.8603 36.4823 20.8384 36.3775 20.8078 36.2741C20.7786 36.1793 20.7434 36.0864 20.7001 35.9971L22.6822 35.4322C22.7111 35.4236 22.7297 35.3946 22.7258 35.3647C22.694 35.1257 22.6428 34.8874 22.5752 34.6553C22.5075 34.4232 22.4215 34.1954 22.3209 33.9758C22.3081 33.9473 22.2763 33.9336 22.2463 33.9426C19.835 34.6277 18.5888 34.9812 18.5384 34.9925C18.5384 34.9925 18.5324 34.9943 18.5252 34.9965L18.5253 34.9926Z" fill="#F3F3F1"/>
<path d="M16.4581 41.1091L16.4533 41.1105C15.993 41.2402 15.5965 41.2833 15.2053 41.2497C14.5668 41.1935 14.0198 40.953 13.5806 40.5338C13.359 40.3222 13.1748 40.0657 13.0322 39.7695C12.9441 39.5862 12.8758 39.3945 12.8305 39.201C12.724 38.745 12.7303 38.3016 12.8493 37.8825C13.0285 37.2459 13.4182 36.7297 14.0092 36.3509C14.2097 36.2219 14.4347 36.1127 14.6762 36.027C14.74 36.0039 14.8045 35.9831 14.8694 35.9636C15.0472 35.91 15.2143 35.8726 15.383 35.849C16.078 35.7522 16.7117 35.8694 17.2659 36.197C17.6656 36.4326 17.9849 36.761 18.2142 37.1723C18.3609 37.4349 18.464 37.7224 18.521 38.0263C18.6122 38.5089 18.5749 38.9798 18.41 39.4244C18.2875 39.7552 18.091 40.0591 17.8264 40.3252C17.5957 40.5566 17.3156 40.751 16.9928 40.9053C16.8359 40.9797 16.6552 41.0497 16.4858 41.1008L16.4569 41.1094L16.4581 41.1091ZM15.3759 37.7246C15.1524 37.7919 14.9696 37.8806 14.8175 37.9964C14.6813 38.0996 14.588 38.2144 14.5313 38.3454C14.4745 38.4765 14.4588 38.6172 14.4858 38.7644C14.5229 38.9655 14.6019 39.1191 14.7278 39.2378C14.8824 39.3816 15.0792 39.4531 15.3455 39.4608C15.5194 39.4667 15.6949 39.4397 15.9331 39.3731L15.9475 39.3688C16.1638 39.3036 16.3494 39.2114 16.4999 39.0949C16.6249 38.9977 16.7147 38.8929 16.7748 38.7725C16.855 38.6111 16.8713 38.434 16.8223 38.2455C16.7849 38.0988 16.7225 37.9817 16.6329 37.887C16.4965 37.7429 16.3136 37.6608 16.0742 37.6384C15.8658 37.6184 15.6494 37.6447 15.3963 37.7184L15.3759 37.7246Z" fill="#F3F3F1"/>
<path d="M14.8785 35.9932C15.0455 35.9429 15.2146 35.9036 15.3885 35.8797C16.0484 35.7883 16.6752 35.883 17.2516 36.2233C17.6517 36.4601 17.9628 36.7833 18.1887 37.1878C18.3374 37.4524 18.4363 37.7346 18.4926 38.0323C18.5813 38.5027 18.549 38.9643 18.3832 39.4143C18.2577 39.7525 18.0623 40.047 17.8067 40.304C17.567 40.5446 17.2886 40.732 16.9819 40.8788C16.8101 40.9603 16.6323 41.0269 16.4809 41.0725C16.4713 41.0754 16.4617 41.0783 16.4521 41.0812C16.0206 41.2021 15.6195 41.2557 15.2104 41.2197C14.5937 41.166 14.0539 40.9402 13.6053 40.5121C13.3764 40.2937 13.1997 40.0401 13.0638 39.7574C12.9765 39.5765 12.9096 39.3895 12.864 39.1948C12.7625 38.7593 12.7595 38.3239 12.882 37.8908C13.0647 37.2402 13.4591 36.7433 14.0275 36.3765C14.2345 36.2429 14.4558 36.1387 14.6877 36.0559C14.7515 36.0328 14.8148 36.0124 14.8797 35.9929M15.9582 39.3993C16.1384 39.345 16.3429 39.2587 16.5207 39.1197C16.6383 39.0286 16.7374 38.9198 16.8041 38.787C16.8915 38.6105 16.9032 38.427 16.8542 38.2385C16.8178 38.0993 16.7577 37.9724 16.658 37.8665C16.5016 37.7 16.3013 37.6296 16.0794 37.6084C15.844 37.5861 15.6153 37.624 15.3887 37.6896C15.3827 37.6915 15.3755 37.6936 15.3695 37.6954C15.1652 37.757 14.9722 37.8423 14.8023 37.9725C14.6745 38.0693 14.5701 38.1862 14.5053 38.3339C14.4435 38.4742 14.4309 38.6204 14.4574 38.7704C14.4917 38.9581 14.5662 39.1273 14.7084 39.2605C14.8871 39.4268 15.1085 39.4844 15.3458 39.4918C15.5368 39.4978 15.7224 39.4651 15.9422 39.4028C15.947 39.4013 15.9518 39.3999 15.9578 39.3981M14.861 35.9325C14.7974 35.9517 14.7316 35.9728 14.6666 35.9962C14.4216 36.083 14.1953 36.1926 13.9928 36.3236C13.3965 36.7065 13.0019 37.228 12.8201 37.8732C12.7002 38.2977 12.6941 38.7462 12.8021 39.207C12.8481 39.4029 12.9168 39.5958 13.006 39.7826C13.1493 40.0812 13.3362 40.3421 13.5609 40.5553C14.0056 40.9794 14.5576 41.2234 15.204 41.2798C15.5984 41.3151 15.9981 41.2697 16.4612 41.1406C16.4636 41.1398 16.466 41.1391 16.4684 41.1384L16.4985 41.1293C16.6691 41.0779 16.8509 41.0076 17.0091 40.9328C17.3355 40.7774 17.6185 40.5795 17.8512 40.3463C18.119 40.0778 18.3184 39.7705 18.4422 39.4354C18.6093 38.985 18.6463 38.509 18.5545 38.0201C18.4964 37.7126 18.3922 37.4216 18.2436 37.157C18.0101 36.7406 17.6869 36.4081 17.2837 36.1697C16.7232 35.8388 16.0824 35.7198 15.3798 35.8176C15.2099 35.8416 15.0401 35.8785 14.861 35.9325ZM15.9395 39.3389L15.9251 39.3432C15.6917 39.4083 15.5186 39.4346 15.3487 39.4288C15.0899 39.4201 14.901 39.3527 14.7518 39.2138C14.6305 39.1015 14.5542 38.9522 14.5193 38.7582C14.4941 38.6169 14.5077 38.482 14.5627 38.358C14.6181 38.2313 14.7089 38.1211 14.8395 38.0208C14.9883 37.9074 15.1675 37.8197 15.3874 37.7535L15.4066 37.7477C15.6561 37.6751 15.8677 37.6502 16.073 37.6686C16.3056 37.6904 16.4819 37.7681 16.6113 37.9065C16.697 37.9972 16.7556 38.1103 16.7927 38.2519C16.8398 38.4345 16.8254 38.6006 16.7477 38.7574C16.6902 38.8731 16.6036 38.9756 16.4827 39.069C16.3354 39.1833 16.153 39.2732 15.9404 39.3373L15.9395 39.3389Z" fill="#F3F3F1"/>
<path d="M28.8683 37.3007C28.8611 37.3028 28.8543 37.3023 28.8469 37.2993C28.8394 37.2964 28.8336 37.2904 28.8298 37.2825L26.8011 32.5453C26.7947 32.5291 26.8012 32.5116 26.8172 32.5042L27.2721 32.3141C27.7908 32.0969 28.3087 31.8813 28.8278 31.6654C29.0315 31.5807 29.2181 31.5128 29.4007 31.4578C29.5353 31.4172 29.6681 31.3837 29.7979 31.3575C30.1219 31.2923 30.4121 31.2709 30.6856 31.2933C31.2033 31.3367 31.6513 31.5332 32.0163 31.8776C32.2015 32.0523 32.3619 32.2616 32.5096 32.5188C32.6181 32.7088 32.7126 32.9172 32.7896 33.1413C32.9338 33.5575 32.9823 33.9403 32.9366 34.3115C32.8934 34.6611 32.7627 34.9866 32.5479 35.2779C32.338 35.5638 32.0579 35.8139 31.693 36.0443C31.453 36.1943 31.1855 36.3319 30.8713 36.4628L28.8667 37.2998L28.8683 37.3007ZM29.0805 33.2167C29.5118 33.9762 29.7018 34.4174 29.9366 35.2167L30.0913 35.1519C30.2078 35.1039 30.3251 35.0543 30.4412 35.0051C30.6374 34.9214 30.7802 34.8266 30.8899 34.7055C31.0164 34.5664 31.0907 34.4028 31.1083 34.2215C31.1242 34.06 31.1023 33.8957 31.0411 33.7186C30.9522 33.4645 30.8384 33.2787 30.6827 33.1314C30.5684 33.0247 30.44 32.9533 30.2982 32.9197C30.1293 32.8786 29.9527 32.8852 29.7737 32.9392C29.7557 32.9446 29.7388 32.9497 29.7208 32.9551C29.6117 32.9932 29.5036 33.0387 29.3976 33.0823L29.2742 33.1337C29.2252 33.1536 29.1762 33.1736 29.1276 33.1947L29.0786 33.2146L29.0805 33.2167Z" fill="#F3F3F1"/>
<path d="M29.4125 31.4879C29.5423 31.4488 29.6739 31.4156 29.8061 31.3887C30.0965 31.3297 30.3885 31.3012 30.685 31.3258C31.1904 31.3678 31.6292 31.5554 31.9961 31.9018C32.1925 32.0873 32.3496 32.3028 32.4832 32.5358C32.5963 32.7321 32.6865 32.9393 32.7614 33.1524C32.8916 33.5274 32.9563 33.9119 32.9067 34.3088C32.8636 34.6584 32.7331 34.9761 32.5228 35.2608C32.2944 35.5718 32.0026 35.8137 31.6757 36.0184C31.4163 36.182 31.1409 36.3155 30.8584 36.4343C30.2059 36.7073 29.553 36.9791 28.9005 37.2521L28.8575 37.2702L26.8287 32.5331C26.8427 32.5276 26.8544 32.5228 26.8661 32.518C27.5234 32.2435 28.1816 31.9675 28.8405 31.6939C29.0277 31.6155 29.2175 31.5453 29.411 31.487M29.9156 35.2553C29.9252 35.2524 29.9312 35.2506 29.9384 35.2485C30.1104 35.1759 30.2831 35.1058 30.4535 35.0324C30.6264 34.9583 30.7854 34.8651 30.9131 34.7256C31.0437 34.5827 31.1209 34.4157 31.1391 34.2238C31.1566 34.0463 31.1274 33.8752 31.0695 33.7088C30.991 33.4838 30.8809 33.2762 30.7034 33.1096C30.5903 33.0025 30.458 32.9272 30.3049 32.8904C30.1217 32.8459 29.9403 32.8579 29.7636 32.9111C29.7456 32.9165 29.7276 32.922 29.7099 32.9286C29.5583 32.982 29.4116 33.047 29.2618 33.1063C29.1859 33.137 29.1115 33.1684 29.0336 33.201C29.4684 33.9633 29.6657 34.4114 29.9135 35.2573M29.3906 31.4297C29.2068 31.4851 29.019 31.5533 28.8141 31.6384C28.3416 31.8351 27.8691 32.0319 27.397 32.2298L26.8409 32.4621L26.8108 32.475L26.8036 32.4772C26.7887 32.4843 26.7768 32.4969 26.7697 32.512C26.7637 32.5268 26.7637 32.5436 26.77 32.5599L28.7988 37.297C28.804 37.3096 28.814 37.3209 28.8266 37.3274C28.8407 37.3348 28.8585 37.3372 28.8753 37.3322C28.8777 37.3315 28.8789 37.3311 28.8813 37.3304L28.9243 37.3122L30.8823 36.4944C31.1976 36.3631 31.4675 36.2248 31.7088 36.0745C32.0773 35.843 32.3602 35.5895 32.573 35.3001C32.7915 35.0038 32.9236 34.674 32.9677 34.3189C33.0135 33.9439 32.9647 33.5559 32.8191 33.135C32.7405 32.9101 32.6461 32.6977 32.536 32.5069C32.3873 32.2462 32.2237 32.0352 32.0378 31.8582C31.6674 31.5089 31.2143 31.3088 30.6886 31.2652C30.4111 31.2426 30.1182 31.2636 29.7918 31.3295C29.662 31.3557 29.528 31.3896 29.3922 31.4305L29.3906 31.4297ZM29.1217 33.2314L29.1338 33.2278C29.1832 33.2051 29.2334 33.1848 29.2836 33.1645C29.3258 33.1479 29.3664 33.1305 29.4082 33.1127C29.5131 33.0695 29.6211 33.0239 29.729 32.9863C29.7458 32.9812 29.7627 32.9761 29.7807 32.9707C29.9549 32.9182 30.1251 32.9122 30.2894 32.9508C30.4271 32.9844 30.5477 33.0516 30.6597 33.1551C30.8116 33.2984 30.9231 33.481 31.0102 33.7292C31.0699 33.9015 31.0915 34.0608 31.0757 34.2183C31.0582 34.3958 30.9898 34.5485 30.8649 34.6845C30.7581 34.8021 30.6197 34.8943 30.4272 34.9769C30.3111 35.0261 30.1949 35.0754 30.0784 35.1234L29.9551 35.1748C29.7263 34.4035 29.5383 33.9643 29.1229 33.231L29.1217 33.2314Z" fill="#F3F3F1"/>
<path d="M34.2561 35.6708C34.2386 35.6735 34.223 35.6614 34.2207 35.6453L33.4231 30.5657C33.4206 30.5574 33.4236 30.55 33.4289 30.5419C33.4326 30.5369 33.4391 30.5324 33.4451 30.5305L37.3767 29.9247C37.3918 29.9227 37.4063 29.9313 37.4103 29.9443C37.4813 30.1404 37.5374 30.3436 37.5756 30.5483C37.6264 30.8192 37.646 31.0955 37.635 31.3707C37.6338 31.384 37.6256 31.3955 37.6124 31.3995L35.48 31.7287C35.5126 31.7746 35.5362 31.8257 35.5491 31.8801C35.5716 31.9743 35.559 32.0571 35.5403 32.1158L37.4913 31.8115C37.5064 31.8095 37.5224 31.8189 37.5256 31.8335C37.5862 32.047 37.6356 32.2665 37.6694 32.4867C37.705 32.7129 37.7274 32.9431 37.7344 33.1702C37.7349 33.1843 37.7254 33.1962 37.7122 33.2002L35.7566 33.502C35.7879 33.5482 35.8208 33.6121 35.8341 33.6936C35.8496 33.7821 35.8391 33.859 35.8217 33.9174L37.9527 33.5925C37.9679 33.5905 37.9823 33.5991 37.9864 33.6121C38.0785 33.864 38.1434 34.1254 38.178 34.3908C38.2068 34.6035 38.2161 34.8208 38.2075 35.0357C38.2064 35.049 38.1981 35.0605 38.1849 35.0645L34.2546 35.67L34.2561 35.6708Z" fill="#F3F3F1"/>
<path d="M33.4531 30.5605L37.3795 29.9549C37.4405 30.123 37.4999 30.3239 37.543 30.553C37.6005 30.8671 37.6101 31.1452 37.6017 31.3691C36.8745 31.4808 36.1476 31.5936 35.4203 31.7053C35.4465 31.7349 35.4954 31.7953 35.5168 31.886C35.5471 32.0141 35.507 32.1181 35.4901 32.1529C35.5289 32.1465 36.4524 32.0028 36.4911 31.9963C36.8243 31.9439 37.159 31.8922 37.4921 31.8397C37.547 32.0304 37.5972 32.2483 37.636 32.4891C37.6758 32.7373 37.6939 32.9662 37.7012 33.1686L35.6989 33.4767C35.7258 33.5087 35.783 33.5834 35.8019 33.6955C35.8236 33.8171 35.7892 33.9142 35.7735 33.9526C36.5011 33.8422 37.2284 33.7305 37.9568 33.6185C38.032 33.8237 38.1068 34.0834 38.1478 34.3908C38.1799 34.631 38.1852 34.8482 38.1771 35.0306L34.2508 35.6362L33.4532 30.5566M33.4349 30.4974C33.4217 30.5014 33.4108 30.5085 33.4026 30.5201C33.3923 30.5336 33.3882 30.5503 33.3918 30.5661L34.1893 35.6457C34.1944 35.6791 34.2267 35.703 34.2606 35.698L38.187 35.0924C38.187 35.0924 38.193 35.0906 38.1954 35.0899C38.2206 35.0823 38.2387 35.06 38.2398 35.0338C38.2492 34.8173 38.2392 34.5976 38.21 34.3837C38.1747 34.116 38.1091 33.8522 38.0162 33.598C38.0062 33.5699 37.9773 33.5527 37.9473 33.5579L35.863 33.8765C35.8736 33.8215 35.8773 33.7569 35.8653 33.6842C35.8536 33.6204 35.8316 33.5662 35.8073 33.5217L37.7119 33.2288C37.7119 33.2288 37.7179 33.227 37.7203 33.2262C37.7467 33.2183 37.7653 33.1933 37.7644 33.165C37.7567 32.9356 37.7351 32.7039 37.6995 32.4777C37.6641 32.2566 37.6156 32.0356 37.5546 31.8209C37.5455 31.7913 37.5158 31.7717 37.4843 31.7761L37.2226 31.8174L35.5813 32.0737C35.5927 32.0172 35.597 31.946 35.5784 31.8687C35.568 31.8265 35.5528 31.7858 35.5308 31.7484L37.612 31.4281C37.612 31.4281 37.6181 31.4263 37.6205 31.4256C37.6457 31.418 37.6638 31.3957 37.6645 31.3683C37.6747 31.0908 37.6556 30.8117 37.6045 30.5396C37.566 30.3338 37.5107 30.129 37.4389 29.9305C37.429 29.9025 37.4 29.8853 37.3701 29.8904L33.4437 30.496C33.4437 30.496 33.4377 30.4978 33.4353 30.4986L33.4349 30.4974Z" fill="#F3F3F1"/>
<path d="M21.9171 43.6357L21.8356 43.3716L22.7637 42.5835L22.8575 42.8874L22.2134 43.3988L22.2184 43.3801L22.23 43.4176L22.2152 43.4048L23.0385 43.4741L23.1323 43.778L21.9171 43.6357Z" fill="#F3F3F1"/>
<path d="M23.6073 43.8112L23.2541 43.9176L23.3181 42.2188L23.7428 42.0908L24.7542 43.4656L24.4011 43.572L23.6449 42.5041L23.6327 42.5078L23.6073 43.8112ZM23.3988 43.2138L24.233 42.9625L24.3112 43.2161L23.4771 43.4674L23.3988 43.2138Z" fill="#F3F3F1"/>
<path d="M25.7058 42.4941L24.7777 43.2822L24.6839 42.9783L25.328 42.4669L25.323 42.4856L25.3114 42.4481L25.3262 42.4609L24.5029 42.3916L24.4092 42.0877L25.6243 42.23L25.7058 42.4941Z" fill="#F3F3F1"/>
<path d="M26.0556 43.0735L25.5816 41.5368L26.6136 41.2258L26.6962 41.4937L25.9937 41.7054L26.1067 42.0715L26.7407 41.8805L26.8233 42.1484L26.1894 42.3394L26.3852 42.9742L26.0556 43.0735Z" fill="#F3F3F1"/>
<path d="M27.1129 42.7549L26.7574 41.6024L27.0717 41.5077L27.1338 41.7088L27.1459 41.7051C27.1452 41.6272 27.1643 41.5624 27.2033 41.5107C27.2421 41.4586 27.2942 41.4226 27.3596 41.4029C27.3759 41.398 27.3937 41.3937 27.4131 41.3901C27.4325 41.3864 27.4498 41.3842 27.4651 41.3834L27.5526 41.667C27.536 41.6671 27.5137 41.6695 27.4857 41.6741C27.4578 41.6787 27.4326 41.6843 27.4103 41.6911C27.3626 41.7054 27.3231 41.7285 27.2919 41.7603C27.261 41.7915 27.2403 41.8284 27.2296 41.871C27.2194 41.9134 27.2215 41.9581 27.236 42.0052L27.4372 42.6572L27.1129 42.7549Z" fill="#F3F3F1"/>
<path d="M28.2992 42.4221C28.181 42.4577 28.0711 42.4637 27.9695 42.4402C27.8684 42.416 27.7807 42.3665 27.7065 42.2915C27.6322 42.216 27.5769 42.1192 27.5405 42.0012C27.5037 41.8821 27.495 41.7711 27.5142 41.668C27.5332 41.5644 27.578 41.4749 27.6485 41.3995C27.7193 41.3235 27.8138 41.2677 27.932 41.2321C28.0503 41.1964 28.16 41.1907 28.2612 41.2149C28.3627 41.2384 28.4506 41.2879 28.5249 41.3634C28.5991 41.4384 28.6545 41.5354 28.6912 41.6545C28.7276 41.7725 28.7363 41.8833 28.7173 41.9869C28.6981 42.09 28.653 42.1796 28.5822 42.2556C28.5117 42.331 28.4174 42.3865 28.2992 42.4221ZM28.2243 42.174C28.2781 42.1578 28.3184 42.1293 28.3451 42.0884C28.3717 42.047 28.3861 41.9973 28.3881 41.9393C28.3907 41.8811 28.3817 41.8185 28.361 41.7515C28.3403 41.6845 28.3125 41.6275 28.2775 41.5807C28.243 41.5336 28.2031 41.5003 28.1576 41.4806C28.1122 41.461 28.0626 41.4593 28.0088 41.4755C27.9545 41.4918 27.9135 41.5208 27.8859 41.5625C27.8588 41.604 27.844 41.6539 27.8414 41.7121C27.8393 41.7701 27.8486 41.8326 27.8693 41.8996C27.89 41.9667 27.9176 42.0237 27.952 42.0707C27.987 42.1176 28.0275 42.1508 28.0734 42.1703C28.1197 42.1891 28.17 42.1904 28.2243 42.174Z" fill="#F3F3F1"/>
<path d="M29.0256 41.4504L29.2312 42.1166L28.907 42.2143L28.5514 41.0618L28.8604 40.9687L28.9232 41.1721L28.9369 41.1679C28.9421 41.0931 28.9691 41.027 29.0179 40.9697C29.0666 40.9118 29.1344 40.8698 29.2211 40.8437C29.3023 40.8192 29.3785 40.8154 29.4497 40.8322C29.5208 40.849 29.5832 40.8849 29.6368 40.9398C29.6902 40.9943 29.7307 41.0663 29.7583 41.1558L29.9847 41.8896L29.6604 41.9873L29.4517 41.3105C29.4304 41.2398 29.3952 41.1903 29.3459 41.162C29.2966 41.1331 29.2394 41.1285 29.1744 41.148C29.1308 41.1612 29.0951 41.182 29.0673 41.2106C29.04 41.2391 29.0225 41.2739 29.0147 41.3151C29.0072 41.3556 29.0109 41.4007 29.0256 41.4504Z" fill="#F3F3F1"/>
<path d="M30.335 40.5244L30.4091 40.7645L29.7051 40.9767L29.631 40.7366L30.335 40.5244ZM29.7056 40.4123L30.0299 40.3146L30.3613 41.389C30.3705 41.4186 30.3821 41.4402 30.3963 41.454C30.4104 41.4672 30.4266 41.4746 30.4448 41.4762C30.4636 41.4777 30.4838 41.4751 30.5057 41.4686C30.5209 41.464 30.5357 41.4581 30.5502 41.4511C30.5645 41.4435 30.5754 41.4377 30.5831 41.4338L30.7075 41.6562C30.6928 41.6661 30.6717 41.6788 30.6443 41.6941C30.617 41.71 30.5826 41.725 30.5409 41.7392C30.4637 41.7658 30.392 41.7762 30.3259 41.7704C30.2603 41.7645 30.2037 41.7416 30.1559 41.7019C30.1082 41.6621 30.0729 41.6044 30.0501 41.5288L29.7056 40.4123Z" fill="#F3F3F1"/>
<path d="M30.905 39.9328L31.3791 41.4695L31.0549 41.5672L30.5808 40.0305L30.905 39.9328Z" fill="#F3F3F1"/>
<path d="M32.0071 41.3048C31.8868 41.3411 31.7759 41.3483 31.6743 41.3264C31.5731 41.3038 31.4855 41.2553 31.4115 41.1809C31.3374 41.1059 31.2815 41.0076 31.244 40.8861C31.2074 40.7675 31.1987 40.6565 31.2178 40.5529C31.2368 40.4492 31.281 40.3597 31.3503 40.2841C31.4201 40.2084 31.5123 40.1533 31.627 40.1187C31.7041 40.0955 31.7797 40.0861 31.8537 40.0906C31.9281 40.0944 31.9977 40.1131 32.0624 40.1467C32.1276 40.18 32.1855 40.2293 32.236 40.2944C32.2865 40.359 32.3268 40.4404 32.3571 40.5384L32.3842 40.6262L31.397 40.9236L31.3359 40.7255L32.0178 40.5201C32.0037 40.4741 31.9809 40.4363 31.9497 40.4069C31.9184 40.3775 31.8817 40.3583 31.8395 40.3491C31.7977 40.3393 31.7531 40.3415 31.7059 40.3557C31.6567 40.3706 31.6166 40.395 31.5855 40.4289C31.5547 40.4623 31.5345 40.5009 31.5247 40.5448C31.5148 40.5883 31.5166 40.6328 31.5302 40.6785L31.5883 40.8668C31.6059 40.9238 31.6317 40.9699 31.6659 41.005C31.7005 41.04 31.741 41.0627 31.7876 41.0733C31.8341 41.0839 31.8845 41.081 31.9388 41.0646C31.9748 41.0538 32.0063 41.0388 32.0331 41.0198C32.06 41.0008 32.081 40.9781 32.0961 40.9516C32.1112 40.9252 32.1199 40.8958 32.1221 40.8634L32.428 40.7926C32.4347 40.8682 32.4226 40.9396 32.3918 41.0069C32.3613 41.0735 32.3136 41.1327 32.2486 41.1845C32.184 41.2357 32.1035 41.2758 32.0071 41.3048Z" fill="#F3F3F1"/>
<path d="M33.2953 39.9916L33.0041 40.0991C32.9913 40.0756 32.9734 40.0564 32.9505 40.0414C32.9274 40.026 32.9003 40.0163 32.8692 40.0126C32.8385 40.0082 32.8043 40.0117 32.7668 40.023C32.7166 40.0381 32.6774 40.0614 32.6494 40.0928C32.6212 40.1237 32.6125 40.1564 32.6231 40.1909C32.6316 40.2184 32.65 40.2383 32.6781 40.2506C32.7063 40.2629 32.7493 40.2666 32.8072 40.2617L33.0317 40.24C33.1525 40.2288 33.2486 40.2403 33.3202 40.2745C33.3917 40.3087 33.4403 40.3673 33.466 40.4503C33.4893 40.5259 33.4871 40.5989 33.4596 40.6696C33.4325 40.74 33.3848 40.8031 33.3166 40.8586C33.2487 40.9135 33.164 40.9563 33.0625 40.9868C32.9077 41.0335 32.7746 41.0389 32.6632 41.003C32.5521 40.9665 32.4717 40.8956 32.4221 40.7903L32.7359 40.6777C32.7599 40.7213 32.7942 40.7498 32.8388 40.7631C32.8832 40.776 32.9343 40.7737 32.9922 40.7563C33.049 40.7391 33.0914 40.7146 33.1192 40.6827C33.1475 40.6502 33.1565 40.6165 33.1464 40.5819C33.1369 40.553 33.1171 40.533 33.0871 40.5218C33.0569 40.5102 33.0148 40.507 32.961 40.5123L32.7463 40.5335C32.6252 40.5454 32.5281 40.532 32.4552 40.4933C32.3828 40.4544 32.3333 40.392 32.3067 40.3059C32.2839 40.2319 32.2845 40.162 32.3086 40.0962C32.3332 40.0303 32.378 39.9717 32.4432 39.9204C32.5088 39.8689 32.5916 39.8281 32.6916 39.798C32.8392 39.7535 32.9649 39.7492 33.0686 39.7852C33.1728 39.8211 33.2484 39.8899 33.2953 39.9916Z" fill="#F3F3F1"/>
<path d="M34.1997 39.36L34.2737 39.6001L33.5697 39.8122L33.4957 39.5721L34.1997 39.36ZM33.5703 39.2478L33.8945 39.1501L34.226 40.2246C34.2351 40.2541 34.2468 40.2757 34.261 40.2895C34.2751 40.3027 34.2912 40.3102 34.3095 40.3118C34.3282 40.3132 34.3485 40.3107 34.3703 40.3041C34.3856 40.2995 34.4004 40.2937 34.4148 40.2866C34.4291 40.279 34.4401 40.2732 34.4478 40.2693L34.5721 40.4918C34.5574 40.5017 34.5364 40.5143 34.509 40.5297C34.4817 40.5456 34.4472 40.5606 34.4056 40.5748C34.3284 40.6013 34.2567 40.6117 34.1906 40.6059C34.125 40.6 34.0683 40.5772 34.0206 40.5374C33.9728 40.4977 33.9376 40.44 33.9148 40.3643L33.5703 39.2478Z" fill="#F3F3F1"/>
<path d="M35.1176 40.3676C34.9993 40.4033 34.8895 40.4093 34.7879 40.3858C34.6867 40.3616 34.5991 40.312 34.5249 40.237C34.4506 40.1616 34.3953 40.0648 34.3588 39.9467C34.3221 39.8277 34.3134 39.7166 34.3326 39.6135C34.3516 39.5099 34.3964 39.4204 34.4669 39.3451C34.5377 39.2691 34.6322 39.2132 34.7504 39.1776C34.8686 39.142 34.9784 39.1363 35.0795 39.1605C35.1811 39.184 35.269 39.2335 35.3433 39.309C35.4174 39.3839 35.4729 39.481 35.5096 39.6C35.546 39.7181 35.5547 39.8289 35.5356 39.9325C35.5164 40.0356 35.4714 40.1251 35.4006 40.2012C35.3301 40.2765 35.2358 40.332 35.1176 40.3676ZM35.0427 40.1196C35.0965 40.1034 35.1367 40.0748 35.1635 40.034C35.1901 39.9926 35.2045 39.9429 35.2065 39.8849C35.2091 39.8267 35.2 39.7641 35.1794 39.6971C35.1587 39.63 35.1309 39.5731 35.0959 39.5262C35.0614 39.4792 35.0214 39.4459 34.976 39.4262C34.9306 39.4065 34.881 39.4048 34.8272 39.421C34.7729 39.4374 34.7319 39.4664 34.7043 39.5081C34.6772 39.5496 34.6623 39.5994 34.6598 39.6576C34.6577 39.7156 34.667 39.7782 34.6877 39.8452C34.7084 39.9122 34.736 39.9692 34.7704 40.0163C34.8054 40.0631 34.8459 40.0963 34.8918 40.1158C34.9381 40.1347 34.9884 40.1359 35.0427 40.1196Z" fill="#F3F3F1"/>
<path d="M36.3236 39.4433L36.1195 38.7815L36.4437 38.6838L36.7993 39.8363L36.488 39.9301L36.4234 39.7208L36.4112 39.7244C36.4057 39.7999 36.3785 39.8674 36.3298 39.9269C36.2815 39.9863 36.2135 40.0292 36.1258 40.0557C36.0476 40.0792 35.9735 40.0824 35.9033 40.0653C35.8331 40.0481 35.7713 40.0124 35.7179 39.9579C35.6651 39.9033 35.6245 39.8311 35.5962 39.7412L35.3698 39.0074L35.694 38.9097L35.9028 39.5865C35.9243 39.6544 35.9594 39.7026 36.0082 39.7311C36.0569 39.7596 36.1119 39.7646 36.1733 39.7461C36.2124 39.7343 36.2462 39.7146 36.2748 39.6868C36.3033 39.6586 36.3225 39.6238 36.3325 39.5825C36.343 39.5411 36.34 39.4947 36.3236 39.4433Z" fill="#F3F3F1"/>
<path d="M37.6056 38.6929L37.3144 38.8004C37.3016 38.7769 37.2837 38.7577 37.2608 38.7427C37.2377 38.7272 37.2106 38.7176 37.1795 38.7139C37.1488 38.7095 37.1146 38.7129 37.0771 38.7242C37.0269 38.7394 36.9877 38.7626 36.9597 38.794C36.9315 38.8249 36.9228 38.8577 36.9334 38.8922C36.9419 38.9197 36.9603 38.9396 36.9884 38.9519C37.0166 38.9641 37.0597 38.9679 37.1175 38.963L37.342 38.9413C37.4628 38.93 37.559 38.9415 37.6305 38.9757C37.7021 39.0099 37.7506 39.0685 37.7763 39.1516C37.7996 39.2271 37.7974 39.3002 37.7699 39.3708C37.7428 39.4413 37.6952 39.5043 37.6269 39.5599C37.559 39.6148 37.4743 39.6575 37.3728 39.6881C37.2181 39.7347 37.085 39.7401 36.9735 39.7043C36.8624 39.6678 36.7821 39.5968 36.7324 39.4915L37.0462 39.3789C37.0702 39.4226 37.1045 39.451 37.1491 39.4644C37.1935 39.4772 37.2447 39.475 37.3025 39.4575C37.3593 39.4404 37.4017 39.4159 37.4295 39.384C37.4578 39.3514 37.4668 39.3178 37.4567 39.2831C37.4472 39.2543 37.4274 39.2343 37.3974 39.2231C37.3672 39.2114 37.3251 39.2082 37.2713 39.2135L37.0566 39.2348C36.9355 39.2466 36.8385 39.2332 36.7655 39.1945C36.6931 39.1557 36.6436 39.0932 36.617 39.0072C36.5942 38.9331 36.5948 38.8633 36.6189 38.7975C36.6435 38.7316 36.6884 38.673 36.7535 38.6216C36.8191 38.5702 36.9019 38.5294 37.0019 38.4992C37.1495 38.4547 37.2752 38.4505 37.3789 38.4865C37.4831 38.5223 37.5587 38.5911 37.6056 38.6929Z" fill="#F3F3F1"/>
<path d="M38.157 37.7477L38.4593 38.8326L38.1808 38.9165L37.8184 37.8498L38.157 37.7477ZM38.4682 39.3548C38.4179 39.3699 38.3694 39.3654 38.3226 39.3412C38.2756 39.3166 38.2447 39.2794 38.23 39.2297C38.2143 39.1809 38.2191 39.1335 38.2444 39.0876C38.2696 39.0418 38.3073 39.0113 38.3575 38.9961C38.4057 38.9816 38.4535 38.9863 38.5008 39.0103C38.5482 39.0344 38.5797 39.0708 38.5953 39.1197C38.605 39.1528 38.6054 39.1858 38.5967 39.2185C38.5883 39.2505 38.5729 39.2789 38.5506 39.3037C38.5281 39.328 38.5006 39.345 38.4682 39.3548Z" fill="#F3F3F1"/>
<path d="M38.9616 38.5L38.8801 38.2359L39.8082 37.4478L39.902 37.7517L39.2579 38.2631L39.2629 38.2444L39.2745 38.2819L39.2597 38.2691L40.083 38.3385L40.1767 38.6423L38.9616 38.5Z" fill="#F3F3F1"/>
<path d="M40.5596 36.9451L40.6249 38.9362L40.3455 39.0204L40.2803 37.0292L40.5596 36.9451Z" fill="#F3F3F1"/>
<path d="M42.0266 37.734L41.0985 38.5221L41.0047 38.2182L41.6488 37.7067L41.6438 37.7255L41.6322 37.688L41.647 37.7007L40.8237 37.6314L40.73 37.3275L41.9451 37.4699L42.0266 37.734Z" fill="#F3F3F1"/>
<path d="M39.7891 28.9246L38.0277 29.4279C38.8958 30.9357 39.7604 32.4407 40.6231 33.9436L43.3184 33.1759C43.2593 31.8574 43.1998 30.5398 43.1402 29.2206C43.1216 28.8098 43.103 28.399 43.0845 27.9878C42.7944 28.0707 42.5039 28.1534 42.2133 28.2361C41.9181 28.3201 41.6227 28.4041 41.3275 28.4885C41.3655 29.0416 41.4132 29.6087 41.4722 30.1908C41.5347 30.8058 41.6076 31.4032 41.6864 31.9806L41.3567 32.0721C41.1322 31.5334 40.8739 30.967 40.5789 30.3802C40.3181 29.8616 40.0533 29.3768 39.7891 28.9246Z" fill="#F3F3F1"/>
<path d="M28.5741 19.4675L26.0144 20.235C25.8672 20.2791 25.7659 20.4131 25.7677 20.5648C25.7958 22.9383 26.3501 24.0509 28.7928 25.0547C28.8868 25.0933 28.9958 25.0882 29.0858 25.0407C31.2774 23.8827 31.7354 22.7238 31.6695 20.3383C31.6652 20.1809 31.5511 20.0477 31.3949 20.0149L28.7486 19.4601C28.6908 19.448 28.6307 19.4505 28.5741 19.4675Z" fill="#F588B9"/>
<path d="M29.8684 20.5335L28.4007 20.7189L27.8714 22.4826L28.6153 22.3886L28.2714 23.838L29.7763 21.7329L28.8438 21.8507L29.8684 20.5335Z" fill="#F3F3F1"/>
</svg>
